<?xml version="1.0" encoding="utf-8"?>
<!-- Generator: Adobe Illustrator 26.2.1, SVG Export Plug-In . SVG Version: 6.00 Build 0)  -->
<svg version="1.1" id="Layer_3" xmlns="http://www.w3.org/2000/svg" xmlns:xlink="http://www.w3.org/1999/xlink" x="0px" y="0px"
	 viewBox="0 0 512 512" style="enable-background:new 0 0 512 512;" xml:space="preserve">
<style type="text/css">
	.st0{fill:#CBC3B6;}
	.st1{fill:#D5CEC2;}
	.st2{fill:#E7E4DD;}
	.st3{fill:#FFFFFF;}
</style>
<g>
	<path class="st0" d="M298.1,174.8c-10.7-11.5-25.6-18.1-42.1-18.1c-15.7,0-30.5,6.6-41.2,16.5l-0.8,163.3
		c10.7,11.5,25.6,18.1,42.1,18.1s31.3-6.6,42.1-18.1"/>
	<path class="st1" d="M192.4,345.5c23.1-4.1,41.2-22.3,45.4-45.4c3.3-16.5-0.8-32.2-9.1-44.5c8.2-12.4,12.4-28,9.1-44.5
		c-4.1-22.3-23.1-40.4-45.4-45.4c-19-3.3-36.3,2.5-48.7,13.2l-1.6,1.6c-4.9-4.1-11.5-7.4-18.1-7.4c-14,0-24.7,10.7-24.7,24.7
		c0,1.6,0,3.3,0.8,4.9c-7.4,1.6-15.7,3.3-23.9,3.3H8.6v99h67.6c24.7,0,48.7,9.9,67.6,26.4C156.2,343,173.4,348.8,192.4,345.5z"/>
	<path class="st2" d="M239.4,226.7c0-4.9,0-10.7-0.8-15.7c-4.1-22.3-23.1-40.4-45.4-45.4c-19-3.3-36.3,2.5-48.7,13.2l-1.6,1.6
		c-5.8-4.1-12.4-7.4-19-7.4c-14,0-24.7,10.7-24.7,24.7c0,1.6,0,3.3,0.8,4.9c-7.4,1.6-15.7,3.3-23.9,3.3H8.5v4.9
		c33,29.7,77.5,47.8,125.4,47.8C172.7,258.9,208.9,247.3,239.4,226.7z"/>
	<path class="st1" d="M368.1,331.5c6.6-5.8,14.8-11.5,22.3-15.7c4.1,8.2,12.4,13.2,22.3,13.2c14,0,24.7-10.7,24.7-24.7h66v-98.1
		h-67.6c-24.7,0-48.7-9.9-67.6-26.4c-12.4-11.5-30.5-16.5-48.7-13.2c-23.1,4.1-41.2,22.3-45.4,45.4c-3.3,16.5,0.8,32.2,9.1,44.5
		c-8.2,12.4-12.4,28-9.1,44.5c4.1,22.3,23.1,40.4,45.4,45.4C338.5,348.8,355.8,343,368.1,331.5z"/>
	<path class="st2" d="M435.8,206.1c-24.7,0-48.7-9.9-67.6-26.4c-12.4-11.5-30.5-16.5-48.7-13.2c-23.1,4.1-41.2,22.3-45.4,45.4v1.6
		C304.6,247.3,348.4,268,397,268c41.2,0,78.4-14.8,107.2-39.6v-22.3L435.8,206.1L435.8,206.1z"/>
	<g>
		<path class="st3" d="M289,222.6c0-23.1,18.1-41.2,41.2-41.2v16.5c-14,0-24.7,10.7-24.7,24.7H289z"/>
	</g>
	<g>
		<path class="st3" d="M181.7,197.9v-16.5c23.1,0,41.2,18.1,41.2,41.2h-16.5C206.4,208.6,195.7,197.9,181.7,197.9z"/>
	</g>
	<g>
		<path class="st2" d="M349,109.6l11.7,11.7l-24.5,24.5l-11.7-11.7L349,109.6z"/>
	</g>
	<g>
		<path class="st2" d="M162.9,109.6l24.5,24.5l-11.7,11.7l-24.5-24.5L162.9,109.6z"/>
	</g>
	<g>
		<path class="st2" d="M289.6,95.3l14.7,7.4l-16.6,33.2l-14.7-7.4L289.6,95.3z"/>
	</g>
	<g>
		<path class="st2" d="M222.2,95.5l16.6,33.2l-14.8,7.4l-16.6-33.2L222.2,95.5z"/>
	</g>
	<g>
		<path class="st2" d="M336.1,365.3l24.5,24.5l-11.7,11.7L324.5,377L336.1,365.3z"/>
	</g>
	<g>
		<path class="st2" d="M175.7,365.3l11.7,11.7l-24.5,24.5l-11.7-11.7L175.7,365.3z"/>
	</g>
	<g>
		<path class="st2" d="M288.1,376.1l16.6,33.2l-14.8,7.4l-16.6-33.2L288.1,376.1z"/>
	</g>
	<g>
		<path class="st2" d="M223.9,376l14.8,7.4l-16.6,33.2l-14.8-7.4L223.9,376z"/>
	</g>
	<path d="M289,222.6h16.5c0-14,10.7-24.7,24.7-24.7v-16.5C307.1,181.4,289,199.5,289,222.6z"/>
	<path d="M181.7,181.4v16.5c14,0,24.7,10.7,24.7,24.7h16.5C222.9,199.5,204.8,181.4,181.7,181.4z"/>
	<path d="M349,109.6l11.7,11.7l-24.5,24.5l-11.7-11.7L349,109.6z"/>
	<path d="M162.9,109.6l24.5,24.5l-11.7,11.7l-24.5-24.5L162.9,109.6z"/>
	<path d="M289.6,95.4l14.7,7.4L287.8,136l-14.7-7.4L289.6,95.4z"/>
	<path d="M222.3,95.4l16.6,33.2l-14.7,7.4l-16.6-33.2L222.3,95.4z"/>
	<path d="M336.1,365.3l24.5,24.5l-11.7,11.7L324.5,377L336.1,365.3z"/>
	<path d="M175.7,365.3l11.7,11.7l-24.5,24.5l-11.7-11.7L175.7,365.3z"/>
	<path d="M288.2,375.7l16.6,33.2l-14.7,7.4l-16.6-33.2L288.2,375.7z"/>
	<path d="M223.8,376.1l14.8,7.4L222,416.7l-14.8-7.4L223.8,376.1z"/>
	<path d="M213.1,347.1c11.5,9.9,27.2,15.7,42.9,15.7s31.3-5.8,42.9-15.7c5.8,3.3,12.4,5.8,19,6.6c20.6,4.1,40.4-1.6,56.1-15.7
		c4.9-4.1,9.1-7.4,14.8-10.7c5.8,6.6,14.8,10.7,23.9,10.7c15.7,0,28-10.7,32.2-24.7h58.5c4.9,0,8.2-3.3,8.2-8.2v-99
		c0-4.9-3.3-8.2-8.2-8.2h-67.6c-22.3,0-44.5-9.1-61.9-24.7c-12.4-10.7-27.2-16.5-43.7-16.5c-11.5,0-21.4,2.5-31.3,7.4
		c-11.5-9.9-26.4-15.7-42.9-15.7c-15.7,0-31.3,5.8-42.9,16.5c-9.1-4.9-19.8-8.2-31.3-8.2c-14.8,0-28.9,4.9-39.6,13.2
		c-5.8-3.3-11.5-4.9-18.1-4.9c-17.3,0-32.2,14-33,31.3c-4.9,0.8-9.9,1.6-14.8,1.6H8.7c-4.9,0-8.2,3.3-8.2,8.2v99
		c0,4.9,3.3,8.2,8.2,8.2h67.6c22.3,0,44.5,9.1,61.9,24.7c14.8,13.2,35.5,19,56.1,15.7C200.7,352.1,207.2,349.6,213.1,347.1z
		 M363.1,185.5c21.4,19,47,28.9,73.4,28.9h58.6v82.5h-57.7c-4.9,0-8.2,3.3-8.2,8.2c0,9.1-7.4,16.5-16.5,16.5
		c-5.8,0-11.5-3.3-14.8-9.1c-2.5-4.1-7.4-5.8-10.7-3.3c-8.2,4.1-16.5,9.9-23.9,16.5c-11.5,9.9-26.4,14-42.1,11.5
		c-19.8-3.3-35.5-19-38.8-38.8c-1.6-9.9-0.8-19.8,2.5-28.9c11.5,11.5,28,19,46.2,19V272c-27.2,0-49.5-22.3-49.5-49.5
		c0-27.2,22.3-49.5,49.5-49.5C342.6,173.1,354.1,177.2,363.1,185.5z M255.9,164.9c10.7,0,20.6,3.3,28.9,9.9
		c-12.4,11.5-20.6,28.9-20.6,47.8c0,12.4,3.3,23.1,9.1,33c-8.2,14-10.7,30.5-7.4,46.2c2.5,13.2,9.9,25.6,19.8,34.6
		c-8.2,5.8-18.1,9.9-28.9,9.9c-10.8,0-20.6-3.3-28.9-9.9c9.9-9.1,16.5-21.4,19.8-34.6c3.3-16.5,0.8-32.2-7.4-46.2
		c5.8-9.9,9.1-20.6,9.1-33c0-19-8.2-36.3-20.6-47.8C235.3,168.2,245.2,164.9,255.9,164.9z M148.7,325.7c-21.4-19-47-28.9-73.4-28.9
		H16.7v-82.5h59.4c8.2,0,17.3-0.8,25.6-3.3c2.5-0.8,4.1-2.5,4.9-4.1s0.8-4.1,0.8-5.8c0-0.8,0-2.5,0-3.3c0-9.1,7.4-16.5,16.5-16.5
		c4.1,0,9.1,1.6,11.5,4.9c1.6,1.6,3.3,2.5,5.8,2.5s4.1-0.8,5.8-2.5c9.9-8.2,22.3-13.2,34.6-13.2c27.2,0,49.5,22.3,49.5,49.5
		c0,27.2-22.3,49.5-49.5,49.5v16.5c18.1,0,33.8-7.4,46.2-19c3.3,9.1,4.9,19,2.5,28.9c-4.1,19.8-19.8,34.6-38.8,38.8
		C175.9,339.7,160.2,335.6,148.7,325.7z"/>
</g>
</svg>
